<mxfile host="app.diagrams.net" modified="2023-01-14T09:36:02.405Z" agent="5.0 (Macintosh; Intel Mac OS X 10_15_7) AppleWebKit/537.36 (KHTML, like Gecko) Chrome/107.0.0.0 Safari/537.36" etag="N9t4W6ewwbSDEyIn1qsd" version="20.6.0" type="github">
  <diagram id="C5RBs43oDa-KdzZeNtuy" name="Page-1">
    <mxGraphModel dx="1234" dy="794" grid="1" gridSize="10" guides="1" tooltips="1" connect="1" arrows="1" fold="1" page="1" pageScale="1" pageWidth="1169" pageHeight="827" math="0" shadow="0">
      <root>
        <mxCell id="WIyWlLk6GJQsqaUBKTNV-0" />
        <mxCell id="WIyWlLk6GJQsqaUBKTNV-1" parent="WIyWlLk6GJQsqaUBKTNV-0" />
        <mxCell id="ZqLwVkyyeCJWZtCOjeCk-13" style="rounded=0;orthogonalLoop=1;jettySize=auto;html=1;entryX=0.5;entryY=0;entryDx=0;entryDy=0;" edge="1" parent="WIyWlLk6GJQsqaUBKTNV-1" source="WIyWlLk6GJQsqaUBKTNV-3" target="ZqLwVkyyeCJWZtCOjeCk-4">
          <mxGeometry relative="1" as="geometry" />
        </mxCell>
        <mxCell id="ZqLwVkyyeCJWZtCOjeCk-34" style="rounded=0;orthogonalLoop=1;jettySize=auto;html=1;entryX=0;entryY=0.5;entryDx=0;entryDy=0;endArrow=none;endFill=0;dashed=1;" edge="1" parent="WIyWlLk6GJQsqaUBKTNV-1" source="WIyWlLk6GJQsqaUBKTNV-3" target="ZqLwVkyyeCJWZtCOjeCk-23">
          <mxGeometry relative="1" as="geometry">
            <mxPoint x="335" y="180" as="targetPoint" />
          </mxGeometry>
        </mxCell>
        <mxCell id="WIyWlLk6GJQsqaUBKTNV-3" value="Origin data file" style="rounded=1;whiteSpace=wrap;html=1;fontSize=12;glass=0;strokeWidth=1;shadow=0;flipH=1;" parent="WIyWlLk6GJQsqaUBKTNV-1" vertex="1">
          <mxGeometry x="135" y="140" width="120" height="60" as="geometry" />
        </mxCell>
        <mxCell id="ZqLwVkyyeCJWZtCOjeCk-15" value="" style="edgeStyle=none;rounded=0;orthogonalLoop=1;jettySize=auto;html=1;" edge="1" parent="WIyWlLk6GJQsqaUBKTNV-1" source="ZqLwVkyyeCJWZtCOjeCk-4" target="ZqLwVkyyeCJWZtCOjeCk-14">
          <mxGeometry relative="1" as="geometry" />
        </mxCell>
        <mxCell id="ZqLwVkyyeCJWZtCOjeCk-37" style="edgeStyle=none;rounded=0;orthogonalLoop=1;jettySize=auto;html=1;dashed=1;endArrow=none;endFill=0;" edge="1" parent="WIyWlLk6GJQsqaUBKTNV-1" source="ZqLwVkyyeCJWZtCOjeCk-4" target="ZqLwVkyyeCJWZtCOjeCk-6">
          <mxGeometry relative="1" as="geometry" />
        </mxCell>
        <mxCell id="ZqLwVkyyeCJWZtCOjeCk-4" value="Trimming" style="rounded=0;whiteSpace=wrap;html=1;flipH=1;" vertex="1" parent="WIyWlLk6GJQsqaUBKTNV-1">
          <mxGeometry x="135" y="240" width="120" height="60" as="geometry" />
        </mxCell>
        <mxCell id="ZqLwVkyyeCJWZtCOjeCk-5" value="&lt;span style=&quot;white-space: pre;&quot;&gt;	&lt;/span&gt;Stacks" style="shape=process;whiteSpace=wrap;html=1;backgroundOutline=1;size=0.13043478260869565;align=center;verticalAlign=top;horizontal=0;fontStyle=1" vertex="1" parent="WIyWlLk6GJQsqaUBKTNV-1">
          <mxGeometry x="80" y="470" width="230" height="200" as="geometry" />
        </mxCell>
        <mxCell id="ZqLwVkyyeCJWZtCOjeCk-6" value="trimmed" style="swimlane;fontStyle=1;childLayout=stackLayout;horizontal=1;startSize=30;horizontalStack=0;resizeParent=1;resizeParentMax=0;resizeLast=0;collapsible=1;marginBottom=0;whiteSpace=wrap;html=1;" vertex="1" parent="WIyWlLk6GJQsqaUBKTNV-1">
          <mxGeometry x="390" y="210" width="140" height="120" as="geometry" />
        </mxCell>
        <mxCell id="ZqLwVkyyeCJWZtCOjeCk-45" value="sample_R1p.fastq.gz" style="text;strokeColor=none;fillColor=none;align=left;verticalAlign=middle;spacingLeft=4;spacingRight=4;overflow=hidden;points=[[0,0.5],[1,0.5]];portConstraint=eastwest;rotatable=0;whiteSpace=wrap;html=1;" vertex="1" parent="ZqLwVkyyeCJWZtCOjeCk-6">
          <mxGeometry y="30" width="140" height="30" as="geometry" />
        </mxCell>
        <mxCell id="ZqLwVkyyeCJWZtCOjeCk-46" value="sample_R2p.fastq.gz" style="text;strokeColor=none;fillColor=none;align=left;verticalAlign=middle;spacingLeft=4;spacingRight=4;overflow=hidden;points=[[0,0.5],[1,0.5]];portConstraint=eastwest;rotatable=0;whiteSpace=wrap;html=1;" vertex="1" parent="ZqLwVkyyeCJWZtCOjeCk-6">
          <mxGeometry y="60" width="140" height="30" as="geometry" />
        </mxCell>
        <mxCell id="ZqLwVkyyeCJWZtCOjeCk-47" value="etc." style="text;strokeColor=none;fillColor=none;align=left;verticalAlign=middle;spacingLeft=4;spacingRight=4;overflow=hidden;points=[[0,0.5],[1,0.5]];portConstraint=eastwest;rotatable=0;whiteSpace=wrap;html=1;" vertex="1" parent="ZqLwVkyyeCJWZtCOjeCk-6">
          <mxGeometry y="90" width="140" height="30" as="geometry" />
        </mxCell>
        <mxCell id="ZqLwVkyyeCJWZtCOjeCk-17" value="" style="edgeStyle=none;rounded=0;orthogonalLoop=1;jettySize=auto;html=1;" edge="1" parent="WIyWlLk6GJQsqaUBKTNV-1" source="ZqLwVkyyeCJWZtCOjeCk-14" target="ZqLwVkyyeCJWZtCOjeCk-5">
          <mxGeometry relative="1" as="geometry" />
        </mxCell>
        <mxCell id="ZqLwVkyyeCJWZtCOjeCk-38" style="edgeStyle=none;rounded=0;orthogonalLoop=1;jettySize=auto;html=1;dashed=1;endArrow=none;endFill=0;" edge="1" parent="WIyWlLk6GJQsqaUBKTNV-1" source="ZqLwVkyyeCJWZtCOjeCk-14" target="ZqLwVkyyeCJWZtCOjeCk-26">
          <mxGeometry relative="1" as="geometry" />
        </mxCell>
        <mxCell id="ZqLwVkyyeCJWZtCOjeCk-14" value="Mapping" style="whiteSpace=wrap;html=1;rounded=0;" vertex="1" parent="WIyWlLk6GJQsqaUBKTNV-1">
          <mxGeometry x="135" y="350" width="120" height="60" as="geometry" />
        </mxCell>
        <mxCell id="ZqLwVkyyeCJWZtCOjeCk-48" style="edgeStyle=none;rounded=0;orthogonalLoop=1;jettySize=auto;html=1;dashed=1;endArrow=none;endFill=0;" edge="1" parent="WIyWlLk6GJQsqaUBKTNV-1" source="ZqLwVkyyeCJWZtCOjeCk-5" target="ZqLwVkyyeCJWZtCOjeCk-30">
          <mxGeometry relative="1" as="geometry">
            <mxPoint x="345" y="590" as="sourcePoint" />
          </mxGeometry>
        </mxCell>
        <mxCell id="ZqLwVkyyeCJWZtCOjeCk-22" value="BaseCall" style="swimlane;fontStyle=1;childLayout=stackLayout;horizontal=1;startSize=30;horizontalStack=0;resizeParent=1;resizeParentMax=0;resizeLast=0;collapsible=1;marginBottom=0;whiteSpace=wrap;html=1;verticalAlign=middle;" vertex="1" parent="WIyWlLk6GJQsqaUBKTNV-1">
          <mxGeometry x="390" y="110" width="140" height="90" as="geometry">
            <mxRectangle x="290" y="55" width="90" height="30" as="alternateBounds" />
          </mxGeometry>
        </mxCell>
        <mxCell id="ZqLwVkyyeCJWZtCOjeCk-23" value="sample_R1.fastq.gz" style="text;strokeColor=none;fillColor=none;align=left;verticalAlign=middle;spacingLeft=4;spacingRight=4;overflow=hidden;points=[[0,0.5],[1,0.5]];portConstraint=eastwest;rotatable=0;whiteSpace=wrap;html=1;" vertex="1" parent="ZqLwVkyyeCJWZtCOjeCk-22">
          <mxGeometry y="30" width="140" height="30" as="geometry" />
        </mxCell>
        <mxCell id="ZqLwVkyyeCJWZtCOjeCk-43" value="sample_R2.fastq.gz" style="text;strokeColor=none;fillColor=none;align=left;verticalAlign=middle;spacingLeft=4;spacingRight=4;overflow=hidden;points=[[0,0.5],[1,0.5]];portConstraint=eastwest;rotatable=0;whiteSpace=wrap;html=1;" vertex="1" parent="ZqLwVkyyeCJWZtCOjeCk-22">
          <mxGeometry y="60" width="140" height="30" as="geometry" />
        </mxCell>
        <mxCell id="ZqLwVkyyeCJWZtCOjeCk-26" value="aligned" style="swimlane;fontStyle=1;childLayout=stackLayout;horizontal=1;startSize=30;horizontalStack=0;resizeParent=1;resizeParentMax=0;resizeLast=0;collapsible=1;marginBottom=0;whiteSpace=wrap;html=1;" vertex="1" parent="WIyWlLk6GJQsqaUBKTNV-1">
          <mxGeometry x="390" y="340" width="140" height="90" as="geometry" />
        </mxCell>
        <mxCell id="ZqLwVkyyeCJWZtCOjeCk-27" value="sample.bam" style="text;strokeColor=none;fillColor=none;align=left;verticalAlign=middle;spacingLeft=4;spacingRight=4;overflow=hidden;points=[[0,0.5],[1,0.5]];portConstraint=eastwest;rotatable=0;whiteSpace=wrap;html=1;" vertex="1" parent="ZqLwVkyyeCJWZtCOjeCk-26">
          <mxGeometry y="30" width="140" height="30" as="geometry" />
        </mxCell>
        <mxCell id="ZqLwVkyyeCJWZtCOjeCk-28" value="sample.bai" style="text;strokeColor=none;fillColor=none;align=left;verticalAlign=middle;spacingLeft=4;spacingRight=4;overflow=hidden;points=[[0,0.5],[1,0.5]];portConstraint=eastwest;rotatable=0;whiteSpace=wrap;html=1;" vertex="1" parent="ZqLwVkyyeCJWZtCOjeCk-26">
          <mxGeometry y="60" width="140" height="30" as="geometry" />
        </mxCell>
        <mxCell id="ZqLwVkyyeCJWZtCOjeCk-30" value="stacks" style="swimlane;fontStyle=1;childLayout=stackLayout;horizontal=1;startSize=30;horizontalStack=0;resizeParent=1;resizeParentMax=0;resizeLast=0;collapsible=1;marginBottom=0;whiteSpace=wrap;html=1;" vertex="1" parent="WIyWlLk6GJQsqaUBKTNV-1">
          <mxGeometry x="390" y="490" width="140" height="120" as="geometry" />
        </mxCell>
        <mxCell id="ZqLwVkyyeCJWZtCOjeCk-31" value="catalog.chrs.tsv" style="text;strokeColor=none;fillColor=none;align=left;verticalAlign=middle;spacingLeft=4;spacingRight=4;overflow=hidden;points=[[0,0.5],[1,0.5]];portConstraint=eastwest;rotatable=0;whiteSpace=wrap;html=1;" vertex="1" parent="ZqLwVkyyeCJWZtCOjeCk-30">
          <mxGeometry y="30" width="140" height="30" as="geometry" />
        </mxCell>
        <mxCell id="ZqLwVkyyeCJWZtCOjeCk-33" value="populations.snps.vcf" style="text;strokeColor=none;fillColor=none;align=left;verticalAlign=middle;spacingLeft=4;spacingRight=4;overflow=hidden;points=[[0,0.5],[1,0.5]];portConstraint=eastwest;rotatable=0;whiteSpace=wrap;html=1;" vertex="1" parent="ZqLwVkyyeCJWZtCOjeCk-30">
          <mxGeometry y="60" width="140" height="30" as="geometry" />
        </mxCell>
        <mxCell id="ZqLwVkyyeCJWZtCOjeCk-32" value="Item 2" style="text;strokeColor=none;fillColor=none;align=left;verticalAlign=middle;spacingLeft=4;spacingRight=4;overflow=hidden;points=[[0,0.5],[1,0.5]];portConstraint=eastwest;rotatable=0;whiteSpace=wrap;html=1;" vertex="1" parent="ZqLwVkyyeCJWZtCOjeCk-30">
          <mxGeometry y="90" width="140" height="30" as="geometry" />
        </mxCell>
        <mxCell id="ZqLwVkyyeCJWZtCOjeCk-16" value="gstacks" style="whiteSpace=wrap;html=1;rounded=0;" vertex="1" parent="WIyWlLk6GJQsqaUBKTNV-1">
          <mxGeometry x="135" y="500" width="120" height="60" as="geometry" />
        </mxCell>
        <mxCell id="ZqLwVkyyeCJWZtCOjeCk-21" style="edgeStyle=none;rounded=0;orthogonalLoop=1;jettySize=auto;html=1;" edge="1" parent="WIyWlLk6GJQsqaUBKTNV-1" source="ZqLwVkyyeCJWZtCOjeCk-16" target="ZqLwVkyyeCJWZtCOjeCk-20">
          <mxGeometry relative="1" as="geometry" />
        </mxCell>
        <mxCell id="ZqLwVkyyeCJWZtCOjeCk-20" value="Population" style="whiteSpace=wrap;html=1;rounded=0;" vertex="1" parent="WIyWlLk6GJQsqaUBKTNV-1">
          <mxGeometry x="135" y="590" width="120" height="60" as="geometry" />
        </mxCell>
        <mxCell id="ZqLwVkyyeCJWZtCOjeCk-59" value="Figure creation" style="whiteSpace=wrap;html=1;" vertex="1" parent="WIyWlLk6GJQsqaUBKTNV-1">
          <mxGeometry x="735" y="1300" width="120" height="60" as="geometry" />
        </mxCell>
        <mxCell id="ZqLwVkyyeCJWZtCOjeCk-109" style="edgeStyle=orthogonalEdgeStyle;orthogonalLoop=1;jettySize=auto;html=1;entryX=0.5;entryY=0;entryDx=0;entryDy=0;" edge="1" parent="WIyWlLk6GJQsqaUBKTNV-1" source="ZqLwVkyyeCJWZtCOjeCk-71" target="ZqLwVkyyeCJWZtCOjeCk-78">
          <mxGeometry relative="1" as="geometry" />
        </mxCell>
        <mxCell id="ZqLwVkyyeCJWZtCOjeCk-71" value="Generate Prerequisits" style="shape=process;whiteSpace=wrap;html=1;backgroundOutline=1;horizontal=0;verticalAlign=top;fontStyle=1" vertex="1" parent="WIyWlLk6GJQsqaUBKTNV-1">
          <mxGeometry x="650" y="110" width="290" height="280" as="geometry" />
        </mxCell>
        <mxCell id="ZqLwVkyyeCJWZtCOjeCk-74" value="" style="rounded=0;orthogonalLoop=1;jettySize=auto;html=1;endArrow=classic;endFill=1;elbow=horizontal;exitX=0.5;exitY=1;exitDx=0;exitDy=0;entryX=0.5;entryY=0;entryDx=0;entryDy=0;" edge="1" parent="WIyWlLk6GJQsqaUBKTNV-1" source="ZqLwVkyyeCJWZtCOjeCk-72" target="ZqLwVkyyeCJWZtCOjeCk-73">
          <mxGeometry relative="1" as="geometry" />
        </mxCell>
        <mxCell id="ZqLwVkyyeCJWZtCOjeCk-72" value="Read depth calculation" style="rounded=0;whiteSpace=wrap;html=1;" vertex="1" parent="WIyWlLk6GJQsqaUBKTNV-1">
          <mxGeometry x="735" y="130" width="120" height="60" as="geometry" />
        </mxCell>
        <mxCell id="ZqLwVkyyeCJWZtCOjeCk-76" value="" style="edgeStyle=none;rounded=0;orthogonalLoop=1;jettySize=auto;html=1;endArrow=classic;endFill=1;elbow=vertical;" edge="1" parent="WIyWlLk6GJQsqaUBKTNV-1" source="ZqLwVkyyeCJWZtCOjeCk-73" target="ZqLwVkyyeCJWZtCOjeCk-75">
          <mxGeometry relative="1" as="geometry" />
        </mxCell>
        <mxCell id="ZqLwVkyyeCJWZtCOjeCk-73" value="Chromosome file generation" style="rounded=0;whiteSpace=wrap;html=1;" vertex="1" parent="WIyWlLk6GJQsqaUBKTNV-1">
          <mxGeometry x="735" y="220" width="120" height="60" as="geometry" />
        </mxCell>
        <mxCell id="ZqLwVkyyeCJWZtCOjeCk-75" value="Consensus&amp;nbsp; calculation" style="rounded=0;whiteSpace=wrap;html=1;" vertex="1" parent="WIyWlLk6GJQsqaUBKTNV-1">
          <mxGeometry x="735" y="310" width="120" height="60" as="geometry" />
        </mxCell>
        <mxCell id="ZqLwVkyyeCJWZtCOjeCk-77" value="Basic settings" style="rounded=0;whiteSpace=wrap;html=1;fontStyle=0" vertex="1" parent="WIyWlLk6GJQsqaUBKTNV-1">
          <mxGeometry x="110" y="50" width="780" height="30" as="geometry" />
        </mxCell>
        <mxCell id="ZqLwVkyyeCJWZtCOjeCk-107" style="edgeStyle=orthogonalEdgeStyle;orthogonalLoop=1;jettySize=auto;html=1;entryX=0.5;entryY=0;entryDx=0;entryDy=0;" edge="1" parent="WIyWlLk6GJQsqaUBKTNV-1" source="ZqLwVkyyeCJWZtCOjeCk-78" target="ZqLwVkyyeCJWZtCOjeCk-94">
          <mxGeometry relative="1" as="geometry" />
        </mxCell>
        <mxCell id="ZqLwVkyyeCJWZtCOjeCk-78" value="Statistics of reads" style="shape=process;whiteSpace=wrap;html=1;backgroundOutline=1;horizontal=0;verticalAlign=top;fontStyle=1" vertex="1" parent="WIyWlLk6GJQsqaUBKTNV-1">
          <mxGeometry x="650" y="425" width="290" height="485" as="geometry" />
        </mxCell>
        <mxCell id="ZqLwVkyyeCJWZtCOjeCk-87" value="" style="edgeStyle=none;rounded=0;orthogonalLoop=1;jettySize=auto;html=1;fontFamily=Helvetica;endArrow=classic;endFill=1;elbow=vertical;" edge="1" parent="WIyWlLk6GJQsqaUBKTNV-1" source="ZqLwVkyyeCJWZtCOjeCk-82" target="ZqLwVkyyeCJWZtCOjeCk-86">
          <mxGeometry relative="1" as="geometry" />
        </mxCell>
        <mxCell id="ZqLwVkyyeCJWZtCOjeCk-82" value="Reads count&lt;br&gt;(trimmed reads)" style="rounded=0;whiteSpace=wrap;html=1;" vertex="1" parent="WIyWlLk6GJQsqaUBKTNV-1">
          <mxGeometry x="735" y="542.5" width="120" height="60" as="geometry" />
        </mxCell>
        <mxCell id="ZqLwVkyyeCJWZtCOjeCk-99" style="edgeStyle=none;rounded=0;orthogonalLoop=1;jettySize=auto;html=1;entryX=0.5;entryY=0;entryDx=0;entryDy=0;fontFamily=Helvetica;endArrow=classic;endFill=1;elbow=vertical;" edge="1" parent="WIyWlLk6GJQsqaUBKTNV-1" source="ZqLwVkyyeCJWZtCOjeCk-85" target="ZqLwVkyyeCJWZtCOjeCk-82">
          <mxGeometry relative="1" as="geometry" />
        </mxCell>
        <mxCell id="ZqLwVkyyeCJWZtCOjeCk-85" value="Reads count&lt;br&gt;(raw reads)" style="rounded=0;whiteSpace=wrap;html=1;" vertex="1" parent="WIyWlLk6GJQsqaUBKTNV-1">
          <mxGeometry x="735" y="447.5" width="120" height="60" as="geometry" />
        </mxCell>
        <mxCell id="ZqLwVkyyeCJWZtCOjeCk-89" value="" style="edgeStyle=none;rounded=0;orthogonalLoop=1;jettySize=auto;html=1;fontFamily=Helvetica;endArrow=classic;endFill=1;elbow=vertical;" edge="1" parent="WIyWlLk6GJQsqaUBKTNV-1" source="ZqLwVkyyeCJWZtCOjeCk-86" target="ZqLwVkyyeCJWZtCOjeCk-88">
          <mxGeometry relative="1" as="geometry" />
        </mxCell>
        <mxCell id="ZqLwVkyyeCJWZtCOjeCk-86" value="Mapped reads coverage" style="rounded=0;whiteSpace=wrap;html=1;" vertex="1" parent="WIyWlLk6GJQsqaUBKTNV-1">
          <mxGeometry x="735" y="632.5" width="120" height="60" as="geometry" />
        </mxCell>
        <mxCell id="ZqLwVkyyeCJWZtCOjeCk-100" style="edgeStyle=none;rounded=0;orthogonalLoop=1;jettySize=auto;html=1;entryX=0.5;entryY=0;entryDx=0;entryDy=0;fontFamily=Helvetica;endArrow=classic;endFill=1;elbow=vertical;" edge="1" parent="WIyWlLk6GJQsqaUBKTNV-1" source="ZqLwVkyyeCJWZtCOjeCk-88" target="ZqLwVkyyeCJWZtCOjeCk-57">
          <mxGeometry relative="1" as="geometry" />
        </mxCell>
        <mxCell id="ZqLwVkyyeCJWZtCOjeCk-88" value="Consensus coverage" style="rounded=0;whiteSpace=wrap;html=1;" vertex="1" parent="WIyWlLk6GJQsqaUBKTNV-1">
          <mxGeometry x="735" y="732.5" width="120" height="60" as="geometry" />
        </mxCell>
        <mxCell id="ZqLwVkyyeCJWZtCOjeCk-57" value="SNP calculation" style="whiteSpace=wrap;html=1;" vertex="1" parent="WIyWlLk6GJQsqaUBKTNV-1">
          <mxGeometry x="735" y="820" width="120" height="60" as="geometry" />
        </mxCell>
        <mxCell id="ZqLwVkyyeCJWZtCOjeCk-110" value="" style="edgeStyle=orthogonalEdgeStyle;orthogonalLoop=1;jettySize=auto;html=1;" edge="1" parent="WIyWlLk6GJQsqaUBKTNV-1" source="ZqLwVkyyeCJWZtCOjeCk-94" target="ZqLwVkyyeCJWZtCOjeCk-59">
          <mxGeometry relative="1" as="geometry" />
        </mxCell>
        <mxCell id="ZqLwVkyyeCJWZtCOjeCk-94" value="Statistics of SNPs" style="shape=process;whiteSpace=wrap;html=1;backgroundOutline=1;horizontal=0;verticalAlign=top;fontStyle=1" vertex="1" parent="WIyWlLk6GJQsqaUBKTNV-1">
          <mxGeometry x="650" y="950" width="290" height="303" as="geometry" />
        </mxCell>
        <mxCell id="ZqLwVkyyeCJWZtCOjeCk-92" value="Filtering&lt;br&gt;(SNP dpeth)" style="whiteSpace=wrap;html=1;" vertex="1" parent="WIyWlLk6GJQsqaUBKTNV-1">
          <mxGeometry x="735" y="975" width="120" height="60" as="geometry" />
        </mxCell>
        <mxCell id="ZqLwVkyyeCJWZtCOjeCk-97" value="" style="edgeStyle=none;rounded=0;orthogonalLoop=1;jettySize=auto;html=1;fontFamily=Helvetica;endArrow=classic;endFill=1;elbow=vertical;" edge="1" parent="WIyWlLk6GJQsqaUBKTNV-1" source="ZqLwVkyyeCJWZtCOjeCk-95" target="ZqLwVkyyeCJWZtCOjeCk-96">
          <mxGeometry relative="1" as="geometry" />
        </mxCell>
        <mxCell id="ZqLwVkyyeCJWZtCOjeCk-95" value="SNP count" style="whiteSpace=wrap;html=1;fontFamily=Helvetica;" vertex="1" parent="WIyWlLk6GJQsqaUBKTNV-1">
          <mxGeometry x="735" y="1063" width="120" height="60" as="geometry" />
        </mxCell>
        <mxCell id="ZqLwVkyyeCJWZtCOjeCk-96" value="SNP density" style="whiteSpace=wrap;html=1;fontFamily=Helvetica;" vertex="1" parent="WIyWlLk6GJQsqaUBKTNV-1">
          <mxGeometry x="735" y="1163" width="120" height="60" as="geometry" />
        </mxCell>
        <mxCell id="ZqLwVkyyeCJWZtCOjeCk-111" value="statistics" style="swimlane;fontStyle=1;childLayout=stackLayout;horizontal=1;startSize=30;horizontalStack=0;resizeParent=1;resizeParentMax=0;resizeLast=0;collapsible=1;marginBottom=0;whiteSpace=wrap;html=1;" vertex="1" parent="WIyWlLk6GJQsqaUBKTNV-1">
          <mxGeometry x="1000" y="110" width="140" height="120" as="geometry">
            <mxRectangle x="400" y="860" width="140" height="30" as="alternateBounds" />
          </mxGeometry>
        </mxCell>
        <mxCell id="ZqLwVkyyeCJWZtCOjeCk-115" value="results.txt" style="text;strokeColor=none;fillColor=none;align=left;verticalAlign=middle;spacingLeft=4;spacingRight=4;overflow=hidden;points=[[0,0.5],[1,0.5]];portConstraint=eastwest;rotatable=0;whiteSpace=wrap;html=1;" vertex="1" parent="ZqLwVkyyeCJWZtCOjeCk-111">
          <mxGeometry y="30" width="140" height="30" as="geometry" />
        </mxCell>
        <mxCell id="ZqLwVkyyeCJWZtCOjeCk-137" value="SNP_Depth_0.jpg" style="text;strokeColor=none;fillColor=none;align=left;verticalAlign=middle;spacingLeft=4;spacingRight=4;overflow=hidden;points=[[0,0.5],[1,0.5]];portConstraint=eastwest;rotatable=0;whiteSpace=wrap;html=1;" vertex="1" parent="ZqLwVkyyeCJWZtCOjeCk-111">
          <mxGeometry y="60" width="140" height="30" as="geometry" />
        </mxCell>
        <mxCell id="ZqLwVkyyeCJWZtCOjeCk-138" value="SNP_Depth_10.jpg" style="text;strokeColor=none;fillColor=none;align=left;verticalAlign=middle;spacingLeft=4;spacingRight=4;overflow=hidden;points=[[0,0.5],[1,0.5]];portConstraint=eastwest;rotatable=0;whiteSpace=wrap;html=1;" vertex="1" parent="ZqLwVkyyeCJWZtCOjeCk-111">
          <mxGeometry y="90" width="140" height="30" as="geometry" />
        </mxCell>
        <mxCell id="ZqLwVkyyeCJWZtCOjeCk-144" value="statistics" style="swimlane;whiteSpace=wrap;html=1;" vertex="1" parent="WIyWlLk6GJQsqaUBKTNV-1">
          <mxGeometry x="970" y="314" width="200" height="486" as="geometry" />
        </mxCell>
        <mxCell id="ZqLwVkyyeCJWZtCOjeCk-131" value="/Read_depth" style="swimlane;fontStyle=0;childLayout=stackLayout;horizontal=1;startSize=30;horizontalStack=0;resizeParent=1;resizeParentMax=0;resizeLast=0;collapsible=1;marginBottom=0;whiteSpace=wrap;html=1;" vertex="1" parent="ZqLwVkyyeCJWZtCOjeCk-144">
          <mxGeometry x="30" y="40" width="140" height="60" as="geometry">
            <mxRectangle y="30" width="140" height="30" as="alternateBounds" />
          </mxGeometry>
        </mxCell>
        <mxCell id="ZqLwVkyyeCJWZtCOjeCk-135" value="&lt;span style=&quot;white-space: pre;&quot;&gt;	&lt;/span&gt;/sample.txt" style="text;strokeColor=none;fillColor=none;align=left;verticalAlign=middle;spacingLeft=4;spacingRight=4;overflow=hidden;points=[[0,0.5],[1,0.5]];portConstraint=eastwest;rotatable=0;whiteSpace=wrap;html=1;" vertex="1" parent="ZqLwVkyyeCJWZtCOjeCk-131">
          <mxGeometry y="30" width="140" height="30" as="geometry" />
        </mxCell>
        <mxCell id="ZqLwVkyyeCJWZtCOjeCk-122" value="/Consensus" style="swimlane;fontStyle=0;childLayout=stackLayout;horizontal=1;startSize=30;horizontalStack=0;resizeParent=1;resizeParentMax=0;resizeLast=0;collapsible=1;marginBottom=0;whiteSpace=wrap;html=1;" vertex="1" parent="ZqLwVkyyeCJWZtCOjeCk-144">
          <mxGeometry x="30" y="116" width="140" height="90" as="geometry">
            <mxRectangle y="30" width="140" height="30" as="alternateBounds" />
          </mxGeometry>
        </mxCell>
        <mxCell id="ZqLwVkyyeCJWZtCOjeCk-123" value="&lt;span style=&quot;white-space: pre;&quot;&gt;	&lt;/span&gt;/chr.txt" style="text;strokeColor=none;fillColor=none;align=left;verticalAlign=middle;spacingLeft=4;spacingRight=4;overflow=hidden;points=[[0,0.5],[1,0.5]];portConstraint=eastwest;rotatable=0;whiteSpace=wrap;html=1;" vertex="1" parent="ZqLwVkyyeCJWZtCOjeCk-122">
          <mxGeometry y="30" width="140" height="30" as="geometry" />
        </mxCell>
        <mxCell id="ZqLwVkyyeCJWZtCOjeCk-126" value="&lt;span style=&quot;white-space: pre;&quot;&gt;	&lt;/span&gt;/consensus.txt" style="text;strokeColor=none;fillColor=none;align=left;verticalAlign=middle;spacingLeft=4;spacingRight=4;overflow=hidden;points=[[0,0.5],[1,0.5]];portConstraint=eastwest;rotatable=0;whiteSpace=wrap;html=1;" vertex="1" parent="ZqLwVkyyeCJWZtCOjeCk-122">
          <mxGeometry y="60" width="140" height="30" as="geometry" />
        </mxCell>
        <mxCell id="ZqLwVkyyeCJWZtCOjeCk-127" value="/Coverage" style="swimlane;fontStyle=0;childLayout=stackLayout;horizontal=1;startSize=30;horizontalStack=0;resizeParent=1;resizeParentMax=0;resizeLast=0;collapsible=1;marginBottom=0;whiteSpace=wrap;html=1;align=left;" vertex="1" parent="ZqLwVkyyeCJWZtCOjeCk-144">
          <mxGeometry x="30" y="236" width="140" height="60" as="geometry" />
        </mxCell>
        <mxCell id="ZqLwVkyyeCJWZtCOjeCk-128" value="&lt;span style=&quot;white-space: pre;&quot;&gt;	&lt;/span&gt;/sample.txt" style="text;strokeColor=none;fillColor=none;align=left;verticalAlign=middle;spacingLeft=4;spacingRight=4;overflow=hidden;points=[[0,0.5],[1,0.5]];portConstraint=eastwest;rotatable=0;whiteSpace=wrap;html=1;" vertex="1" parent="ZqLwVkyyeCJWZtCOjeCk-127">
          <mxGeometry y="30" width="140" height="30" as="geometry" />
        </mxCell>
        <mxCell id="ZqLwVkyyeCJWZtCOjeCk-146" value="./" style="swimlane;fontStyle=0;childLayout=stackLayout;horizontal=1;startSize=30;horizontalStack=0;resizeParent=1;resizeParentMax=0;resizeLast=0;collapsible=1;marginBottom=0;whiteSpace=wrap;html=1;" vertex="1" parent="ZqLwVkyyeCJWZtCOjeCk-144">
          <mxGeometry x="30" y="336" width="140" height="94" as="geometry">
            <mxRectangle y="30" width="140" height="30" as="alternateBounds" />
          </mxGeometry>
        </mxCell>
        <mxCell id="ZqLwVkyyeCJWZtCOjeCk-149" value="" style="shape=table;startSize=0;container=1;collapsible=0;childLayout=tableLayout;" vertex="1" parent="WIyWlLk6GJQsqaUBKTNV-1">
          <mxGeometry x="1230" y="410" width="120" height="160" as="geometry" />
        </mxCell>
        <mxCell id="ZqLwVkyyeCJWZtCOjeCk-150" value="" style="shape=tableRow;horizontal=0;startSize=0;swimlaneHead=0;swimlaneBody=0;top=0;left=0;bottom=0;right=0;collapsible=0;dropTarget=0;fillColor=none;points=[[0,0.5],[1,0.5]];portConstraint=eastwest;" vertex="1" parent="ZqLwVkyyeCJWZtCOjeCk-149">
          <mxGeometry width="120" height="40" as="geometry" />
        </mxCell>
        <mxCell id="ZqLwVkyyeCJWZtCOjeCk-151" value="" style="shape=partialRectangle;html=1;whiteSpace=wrap;connectable=0;overflow=hidden;fillColor=none;top=0;left=0;bottom=0;right=0;pointerEvents=1;" vertex="1" parent="ZqLwVkyyeCJWZtCOjeCk-150">
          <mxGeometry width="60" height="40" as="geometry">
            <mxRectangle width="60" height="40" as="alternateBounds" />
          </mxGeometry>
        </mxCell>
        <mxCell id="ZqLwVkyyeCJWZtCOjeCk-152" value="" style="shape=partialRectangle;html=1;whiteSpace=wrap;connectable=0;overflow=hidden;fillColor=none;top=0;left=0;bottom=0;right=0;pointerEvents=1;" vertex="1" parent="ZqLwVkyyeCJWZtCOjeCk-150">
          <mxGeometry x="60" width="60" height="40" as="geometry">
            <mxRectangle width="60" height="40" as="alternateBounds" />
          </mxGeometry>
        </mxCell>
        <mxCell id="ZqLwVkyyeCJWZtCOjeCk-153" value="" style="shape=tableRow;horizontal=0;startSize=0;swimlaneHead=0;swimlaneBody=0;top=0;left=0;bottom=0;right=0;collapsible=0;dropTarget=0;fillColor=none;points=[[0,0.5],[1,0.5]];portConstraint=eastwest;" vertex="1" parent="ZqLwVkyyeCJWZtCOjeCk-149">
          <mxGeometry y="40" width="120" height="40" as="geometry" />
        </mxCell>
        <mxCell id="ZqLwVkyyeCJWZtCOjeCk-154" value="" style="shape=partialRectangle;html=1;whiteSpace=wrap;connectable=0;overflow=hidden;fillColor=none;top=0;left=0;bottom=0;right=0;pointerEvents=1;" vertex="1" parent="ZqLwVkyyeCJWZtCOjeCk-153">
          <mxGeometry width="60" height="40" as="geometry">
            <mxRectangle width="60" height="40" as="alternateBounds" />
          </mxGeometry>
        </mxCell>
        <mxCell id="ZqLwVkyyeCJWZtCOjeCk-155" value="" style="shape=partialRectangle;html=1;whiteSpace=wrap;connectable=0;overflow=hidden;fillColor=none;top=0;left=0;bottom=0;right=0;pointerEvents=1;" vertex="1" parent="ZqLwVkyyeCJWZtCOjeCk-153">
          <mxGeometry x="60" width="60" height="40" as="geometry">
            <mxRectangle width="60" height="40" as="alternateBounds" />
          </mxGeometry>
        </mxCell>
        <mxCell id="ZqLwVkyyeCJWZtCOjeCk-156" value="" style="shape=tableRow;horizontal=0;startSize=0;swimlaneHead=0;swimlaneBody=0;top=0;left=0;bottom=0;right=0;collapsible=0;dropTarget=0;fillColor=none;points=[[0,0.5],[1,0.5]];portConstraint=eastwest;" vertex="1" parent="ZqLwVkyyeCJWZtCOjeCk-149">
          <mxGeometry y="80" width="120" height="40" as="geometry" />
        </mxCell>
        <mxCell id="ZqLwVkyyeCJWZtCOjeCk-157" value="" style="shape=partialRectangle;html=1;whiteSpace=wrap;connectable=0;overflow=hidden;fillColor=none;top=0;left=0;bottom=0;right=0;pointerEvents=1;" vertex="1" parent="ZqLwVkyyeCJWZtCOjeCk-156">
          <mxGeometry width="60" height="40" as="geometry">
            <mxRectangle width="60" height="40" as="alternateBounds" />
          </mxGeometry>
        </mxCell>
        <mxCell id="ZqLwVkyyeCJWZtCOjeCk-158" value="" style="shape=partialRectangle;html=1;whiteSpace=wrap;connectable=0;overflow=hidden;fillColor=none;top=0;left=0;bottom=0;right=0;pointerEvents=1;" vertex="1" parent="ZqLwVkyyeCJWZtCOjeCk-156">
          <mxGeometry x="60" width="60" height="40" as="geometry">
            <mxRectangle width="60" height="40" as="alternateBounds" />
          </mxGeometry>
        </mxCell>
        <mxCell id="ZqLwVkyyeCJWZtCOjeCk-159" value="" style="shape=tableRow;horizontal=0;startSize=0;swimlaneHead=0;swimlaneBody=0;top=0;left=0;bottom=0;right=0;collapsible=0;dropTarget=0;fillColor=none;points=[[0,0.5],[1,0.5]];portConstraint=eastwest;" vertex="1" parent="ZqLwVkyyeCJWZtCOjeCk-149">
          <mxGeometry y="120" width="120" height="40" as="geometry" />
        </mxCell>
        <mxCell id="ZqLwVkyyeCJWZtCOjeCk-160" value="" style="shape=partialRectangle;html=1;whiteSpace=wrap;connectable=0;overflow=hidden;fillColor=none;top=0;left=0;bottom=0;right=0;pointerEvents=1;" vertex="1" parent="ZqLwVkyyeCJWZtCOjeCk-159">
          <mxGeometry width="60" height="40" as="geometry">
            <mxRectangle width="60" height="40" as="alternateBounds" />
          </mxGeometry>
        </mxCell>
        <mxCell id="ZqLwVkyyeCJWZtCOjeCk-161" value="" style="shape=partialRectangle;html=1;whiteSpace=wrap;connectable=0;overflow=hidden;fillColor=none;top=0;left=0;bottom=0;right=0;pointerEvents=1;" vertex="1" parent="ZqLwVkyyeCJWZtCOjeCk-159">
          <mxGeometry x="60" width="60" height="40" as="geometry">
            <mxRectangle width="60" height="40" as="alternateBounds" />
          </mxGeometry>
        </mxCell>
        <mxCell id="ZqLwVkyyeCJWZtCOjeCk-162" value="Statistics" style="swimlane;childLayout=stackLayout;resizeParent=1;resizeParentMax=0;horizontal=1;startSize=20;horizontalStack=0;html=1;" vertex="1" parent="WIyWlLk6GJQsqaUBKTNV-1">
          <mxGeometry x="1210" y="590" width="480" height="480" as="geometry" />
        </mxCell>
        <mxCell id="ZqLwVkyyeCJWZtCOjeCk-163" value="/Read_depth" style="swimlane;startSize=20;horizontal=1;html=1;align=left;" vertex="1" parent="ZqLwVkyyeCJWZtCOjeCk-162">
          <mxGeometry y="20" width="480" height="100" as="geometry" />
        </mxCell>
        <mxCell id="ZqLwVkyyeCJWZtCOjeCk-164" value="/Consensus" style="swimlane;startSize=20;horizontal=1;html=1;align=left;" vertex="1" parent="ZqLwVkyyeCJWZtCOjeCk-162">
          <mxGeometry y="120" width="480" height="120" as="geometry" />
        </mxCell>
        <mxCell id="ZqLwVkyyeCJWZtCOjeCk-165" value="/Coverage" style="swimlane;startSize=20;horizontal=1;html=1;align=left;" vertex="1" parent="ZqLwVkyyeCJWZtCOjeCk-162">
          <mxGeometry y="240" width="480" height="120" as="geometry" />
        </mxCell>
        <mxCell id="ZqLwVkyyeCJWZtCOjeCk-166" value="./" style="swimlane;startSize=20;horizontal=1;html=1;align=left;" vertex="1" parent="ZqLwVkyyeCJWZtCOjeCk-162">
          <mxGeometry y="360" width="480" height="120" as="geometry" />
        </mxCell>
      </root>
    </mxGraphModel>
  </diagram>
</mxfile>
